<svg id="Ebene_2" data-name="Ebene 2" xmlns="http://www.w3.org/2000/svg" viewBox="0 0 1499 213"><defs><style>.cls-1{fill:#ee5700;}.cls-2{fill:#fd9e06;}.cls-3{fill:#ff902e;}</style></defs><polygon class="cls-1" points="0 213 330.26 0 0 0 0 213"/><polygon class="cls-2" points="406.12 213 330.26 0 0 213 406.12 213"/><polygon class="cls-3" points="573.36 0 573.36 213 406.12 213 330.26 0 573.36 0"/><polygon class="cls-1" points="952.67 213 806.12 0 573.36 213 952.67 213"/><polygon class="cls-2" points="806.12 0 573.36 0 573.36 213 806.12 0"/><polygon class="cls-2" points="952.67 213 1275.09 0 1073.36 0 952.67 213"/><polygon class="cls-1" points="1435.43 0 1275.09 0 952.67 213 1435.43 0"/><polygon class="cls-2" points="1313.02 213 1435.43 0 952.67 213 1313.02 213"/><polygon class="cls-3" points="1499 213 1499 0 1435.43 0 1313.02 213 1499 213"/><polygon class="cls-3" points="952.67 213 1073.36 0 806.12 0 952.67 213"/></svg>
