<?xml version="1.0" standalone="no"?>
<!DOCTYPE svg PUBLIC "-//W3C//DTD SVG 20010904//EN"
 "http://www.w3.org/TR/2001/REC-SVG-20010904/DTD/svg10.dtd">
<svg version="1.0" xmlns="http://www.w3.org/2000/svg"
 width="208.000000pt" height="208.000000pt" viewBox="0 0 208.000000 208.000000"
 preserveAspectRatio="xMidYMid meet">

<g transform="translate(0.000000,208.000000) scale(0.100000,-0.100000)"
fill="#000000" stroke="none">
<path d="M428 1652 c-88 -88 -108 -113 -108 -137 0 -24 35 -64 222 -252 l222
-223 -222 -223 c-187 -188 -222 -228 -222 -252 0 -24 20 -49 108 -137 88 -88
113 -108 137 -108 24 0 64 35 252 222 l223 222 223 -222 c188 -187 228 -222
252 -222 24 0 49 20 137 108 88 88 108 113 108 137 0 24 -35 64 -222 252
l-222 223 222 223 c187 188 222 228 222 252 0 24 -20 49 -108 137 -88 88 -113
108 -137 108 -24 0 -64 -35 -252 -222 l-223 -222 -223 222 c-188 187 -228 222
-252 222 -24 0 -49 -20 -137 -108z"/>
</g>
</svg>
